<svg xmlns="http://www.w3.org/2000/svg" xmlns:xlink="http://www.w3.org/1999/xlink" width="200" zoomAndPan="magnify" viewBox="0 0 150 149.999998" height="200" preserveAspectRatio="xMidYMid meet" version="1.0"><defs><clipPath id="da89a57ae8"><path d="M 26.800781 33.511719 L 48.726562 33.511719 L 48.726562 45.371094 L 26.800781 45.371094 Z M 26.800781 33.511719 " clip-rule="nonzero"/></clipPath><clipPath id="41273153db"><path d="M 0.800781 0.511719 L 22.726562 0.511719 L 22.726562 12.371094 L 0.800781 12.371094 Z M 0.800781 0.511719 " clip-rule="nonzero"/></clipPath><clipPath id="24eaf0e567"><rect x="0" width="23" y="0" height="13"/></clipPath></defs><path fill="#ffffff" d="M 148.136719 63.238281 C 147.671875 63.003906 140.917969 61.140625 135.792969 59.742188 C 134.160156 53.6875 131.832031 47.863281 128.570312 42.507812 L 134.859375 31.328125 C 135.324219 30.394531 135.324219 29.230469 134.394531 28.53125 L 121.351562 15.488281 C 120.652344 14.789062 119.488281 14.558594 118.554688 15.023438 L 107.144531 21.3125 C 101.785156 18.050781 95.960938 15.722656 89.90625 14.324219 L 86.414062 1.746094 C 86.179688 0.816406 85.25 0.117188 84.082031 0.117188 L 65.683594 0.117188 C 64.519531 0.117188 63.820312 0.816406 63.355469 1.746094 L 59.859375 14.324219 C 53.804688 15.722656 48.214844 18.285156 42.625 21.546875 L 31.210938 15.257812 C 30.28125 14.789062 29.113281 14.789062 28.417969 15.722656 L 15.371094 28.765625 C 14.675781 29.464844 14.441406 30.628906 14.90625 31.5625 L 21.195312 42.742188 C 17.933594 48.097656 15.605469 53.921875 13.976562 59.976562 L 1.628906 63.46875 C 0.699219 63.703125 0 64.636719 0 65.800781 L 0 84.199219 C 0 85.363281 0.699219 86.0625 1.628906 86.53125 L 13.976562 90.023438 C 15.605469 96.078125 17.933594 101.902344 21.195312 107.257812 L 14.90625 118.4375 C 14.441406 119.371094 14.441406 120.535156 15.371094 121.234375 L 28.417969 134.277344 C 29.113281 134.976562 30.28125 135.210938 31.210938 134.742188 L 42.625 128.453125 C 47.980469 131.714844 53.804688 134.046875 59.859375 135.675781 L 63.355469 148.253906 C 63.585938 149.183594 64.519531 149.882812 65.683594 149.882812 L 84.082031 149.882812 C 85.015625 149.882812 85.945312 149.183594 86.414062 148.253906 L 89.90625 135.675781 C 95.960938 134.277344 101.785156 131.714844 107.144531 128.453125 L 118.554688 134.742188 C 119.488281 135.210938 120.652344 134.976562 121.351562 134.277344 L 134.394531 121.234375 C 135.09375 120.535156 135.324219 119.371094 134.859375 118.4375 L 128.570312 107.257812 C 131.832031 101.902344 134.160156 96.078125 135.792969 90.023438 L 148.136719 86.53125 C 149.066406 86.296875 149.765625 85.363281 149.765625 84.199219 L 149.765625 66.03125 C 150 64.402344 149.300781 63.46875 148.136719 63.238281 Z M 75.464844 111.917969 C 54.96875 111.917969 38.199219 95.148438 38.199219 74.652344 C 38.199219 54.152344 54.96875 37.382812 75.464844 37.382812 C 95.960938 37.382812 112.734375 54.152344 112.734375 74.652344 C 112.734375 95.148438 95.960938 111.917969 75.464844 111.917969 Z M 75.464844 111.917969 " fill-opacity="1" fill-rule="nonzero"/><path fill="#ffffff" d="M 62.421875 66.03125 C 62.421875 58.8125 68.246094 52.988281 75.464844 52.988281 C 82.6875 52.988281 88.507812 58.8125 88.507812 66.03125 C 88.507812 73.253906 82.6875 79.074219 75.464844 79.074219 C 68.246094 79.074219 62.421875 73.253906 62.421875 66.03125 Z M 62.421875 66.03125 " fill-opacity="1" fill-rule="nonzero"/><path fill="#ffffff" d="M 101.785156 95.378906 C 101.320312 95.847656 100.621094 96.3125 99.921875 96.3125 L 50.777344 96.3125 C 50.078125 96.3125 49.378906 96.078125 48.914062 95.378906 C 48.445312 94.914062 48.214844 94.214844 48.445312 93.515625 C 50.078125 86.996094 53.804688 81.171875 59.160156 77.445312 C 60.09375 76.746094 61.492188 76.980469 62.1875 77.679688 C 65.449219 81.40625 70.339844 83.5 75.234375 83.5 C 80.125 83.5 85.015625 81.40625 88.277344 77.679688 C 88.976562 76.746094 90.371094 76.746094 91.304688 77.445312 C 96.660156 81.40625 100.386719 86.996094 102.019531 93.515625 C 102.484375 94.214844 102.25 94.914062 101.785156 95.378906 Z M 101.785156 95.378906 " fill-opacity="1" fill-rule="nonzero"/><g clip-path="url(#da89a57ae8)"><g transform="matrix(1, 0, 0, 1, 26, 33)"><g clip-path="url(#24eaf0e567)"><g clip-path="url(#41273153db)"><path fill="#ffffff" d="M 0.800781 0.511719 L 22.714844 0.511719 L 22.714844 12.371094 L 0.800781 12.371094 Z M 0.800781 0.511719 " fill-opacity="1" fill-rule="nonzero"/></g></g></g></g></svg>